<svg width="20" height="22" viewBox="0 0 20 22" fill="none" xmlns="http://www.w3.org/2000/svg">
<path d="M19.6968 15.2362C19.6768 15.2202 17.5568 13.5962 17.5938 9.20619C17.6138 6.67319 16.7818 4.42419 15.2468 2.87219C13.8718 1.47919 12.0098 0.708195 10.0048 0.700195H9.99179C7.98779 0.708195 6.12579 1.48019 4.74979 2.87219C3.21579 4.42519 2.3828 6.67419 2.4038 9.20518C2.4408 13.5372 0.383791 15.1722 0.301791 15.2352C0.0417911 15.4292 -0.0642083 15.7652 0.0367917 16.0732C0.137792 16.3812 0.426789 16.5882 0.749789 16.5882H5.24379C5.34379 19.1322 7.43179 21.1752 9.99979 21.1752C12.5678 21.1752 14.6548 19.1322 14.7558 16.5882H19.2498C19.5738 16.5882 19.8598 16.3802 19.9618 16.0732C20.0638 15.7662 19.9568 15.4292 19.6968 15.2362ZM9.99979 19.1762C8.53379 19.1762 7.34279 18.0292 7.24379 16.5882H12.7558C12.6558 18.0282 11.4658 19.1752 9.99979 19.1752V19.1762Z" fill="black"/>
</svg>
