<svg width="28" height="29" viewBox="0 0 28 29" fill="none" xmlns="http://www.w3.org/2000/svg">
<mask id="mask0_202_324" style="mask-type:alpha" maskUnits="userSpaceOnUse" x="0" y="0" width="28" height="29">
<rect y="0.768066" width="28" height="28" fill="#C4C4C4"/>
</mask>
<g mask="url(#mask0_202_324)">
<path d="M13.9702 14.9558C12.3882 14.9558 10.6196 14.7808 9.49023 13.4905C8.54056 12.4055 8.23373 10.7278 8.55107 8.36649C8.9944 5.06949 11.0197 3.10132 13.9714 3.10132C16.9231 3.10132 18.9496 5.06949 19.3917 8.36649C19.7091 10.7278 19.4011 12.4031 18.4514 13.4905C17.3197 14.7808 15.5522 14.9547 13.9714 14.9547L13.9702 14.9558ZM20.7941 26.4475H7.1464C6.3729 26.4475 5.68807 26.1208 5.2214 25.5305C4.72907 24.9075 4.5494 24.0488 4.74307 23.2345C5.71607 19.1162 9.51006 16.238 13.9691 16.238C18.4281 16.238 22.2221 19.115 23.1974 23.2345C23.3887 24.0488 23.2091 24.9075 22.7167 25.5293C22.2501 26.1185 21.5676 26.4452 20.7941 26.4452V26.4475Z" fill="black"/>
</g>
</svg>
