<svg width="21" height="21" viewBox="0 0 21 21" fill="none" xmlns="http://www.w3.org/2000/svg">
<path d="M17.888 1.00037H3.111C1.94513 1.00037 1 1.94549 1 3.11136V17.8883C1 19.0542 1.94513 19.9993 3.111 19.9993H17.888C19.0538 19.9993 19.999 19.0542 19.999 17.8883V3.11136C19.999 1.94549 19.0538 1.00037 17.888 1.00037Z" stroke="#1DA1F2" stroke-width="2" stroke-linecap="round" stroke-linejoin="round"/>
<path d="M6.80587 8.38775C7.68027 8.38775 8.38912 7.6789 8.38912 6.8045C8.38912 5.9301 7.68027 5.22125 6.80587 5.22125C5.93147 5.22125 5.22263 5.9301 5.22263 6.8045C5.22263 7.6789 5.93147 8.38775 6.80587 8.38775Z" stroke="#1DA1F2" stroke-width="2" stroke-linecap="round" stroke-linejoin="round"/>
<path d="M19.9984 13.667L14.7209 8.38953L3.11041 20" stroke="#1DA1F2" stroke-width="2" stroke-linecap="round" stroke-linejoin="round"/>
</svg>
