<svg width="28" height="28" viewBox="0 0 28 28" fill="none" xmlns="http://www.w3.org/2000/svg">
<mask id="mask0_404_56" style="mask-type:alpha" maskUnits="userSpaceOnUse" x="0" y="0" width="28" height="28">
<rect width="28" height="28" fill="#C4C4C4"/>
</mask>
<g mask="url(#mask0_404_56)">
<path d="M23.0417 25.6666H4.95834C3.51168 25.6666 2.33334 24.4883 2.33334 23.0416V4.95825C2.33334 3.51159 3.51168 2.33325 4.95834 2.33325H23.0417C24.4883 2.33325 25.6667 3.51159 25.6667 4.95825V23.0416C25.6667 24.4883 24.4883 25.6666 23.0417 25.6666ZM4.95834 4.08325C4.47534 4.08325 4.08334 4.47642 4.08334 4.95825V23.0416C4.08334 23.5234 4.47534 23.9166 4.95834 23.9166H23.0417C23.5247 23.9166 23.9167 23.5234 23.9167 23.0416V4.95825C23.9167 4.47642 23.5247 4.08325 23.0417 4.08325H4.95834Z" fill="black"/>
<path d="M19.5417 9.91675H7.875C7.392 9.91675 7 9.52358 7 9.04175C7 8.55991 7.392 8.16675 7.875 8.16675H19.5417C20.0247 8.16675 20.4167 8.55758 20.4167 9.04175C20.4167 9.52591 20.0247 9.91675 19.5417 9.91675ZM19.5417 14.7117H7.875C7.392 14.7117 7 14.3197 7 13.8367C7 13.3537 7.392 12.9617 7.875 12.9617H19.5417C20.0247 12.9617 20.4167 13.3537 20.4167 13.8367C20.4167 14.3197 20.0247 14.7117 19.5417 14.7117ZM13.7083 19.5067H7.875C7.392 19.5067 7 19.1159 7 18.6317C7 18.1476 7.392 17.7567 7.875 17.7567H13.7083C14.1913 17.7567 14.5833 18.1499 14.5833 18.6317C14.5833 19.1136 14.1913 19.5067 13.7083 19.5067Z" fill="black"/>
</g>
</svg>
