<svg width="28" height="28" viewBox="0 0 28 28" fill="none" xmlns="http://www.w3.org/2000/svg">
<mask id="mask0_404_73" style="mask-type:alpha" maskUnits="userSpaceOnUse" x="0" y="0" width="28" height="28">
<rect width="28" height="28" fill="#C4C4C4"/>
</mask>
<g mask="url(#mask0_404_73)">
<path d="M25.3141 19.2943C25.2907 19.2756 22.8174 17.3809 22.8606 12.2593C22.8839 9.30526 21.9132 6.68026 20.1224 4.86842C18.5182 3.24326 16.3459 2.34492 14.0067 2.33325H13.9916C11.6536 2.34492 9.48124 3.24326 7.8759 4.8696C6.08624 6.68143 5.11325 9.30526 5.13891 12.2593C5.18208 17.3109 2.78224 19.2208 2.68657 19.2943C2.38324 19.5194 2.25957 19.9126 2.37741 20.2719C2.49641 20.6313 2.8324 20.8728 3.20806 20.8728H8.94808C9.06708 23.5678 11.2779 25.7261 13.9997 25.7261C16.7216 25.7261 18.9301 23.5678 19.0479 20.8728H24.7902C25.1659 20.8728 25.5019 20.6324 25.6186 20.2731C25.7387 19.9149 25.6151 19.5206 25.3117 19.2954L25.3141 19.2943ZM14.0009 23.9726C12.2451 23.9726 10.8159 22.5994 10.7016 20.8716H17.3002C17.1836 22.5983 15.7567 23.9749 14.0009 23.9749V23.9726ZM5.11091 19.1216C5.97424 17.8009 6.91691 15.5889 6.88891 12.2429C6.86791 9.72292 7.64024 7.59726 9.12074 6.09809C10.3959 4.80659 12.1307 4.09142 14.0009 4.08325C15.8711 4.09259 17.6024 4.8066 18.8776 6.09927C20.3592 7.59843 21.1327 9.72293 21.1117 12.2441C21.0837 15.5901 22.0276 17.8033 22.8909 19.1228H5.11091V19.1216Z" fill="black"/>
</g>
</svg>
