<svg width="28" height="29" viewBox="0 0 28 29" fill="none" xmlns="http://www.w3.org/2000/svg">
<mask id="mask0_202_308" style="mask-type:alpha" maskUnits="userSpaceOnUse" x="0" y="0" width="28" height="29">
<rect y="0.768066" width="28" height="28" fill="#C4C4C4"/>
</mask>
<g mask="url(#mask0_202_308)">
<path d="M26.46 9.60315L14.6708 3.24132C14.3243 3.05465 13.9078 3.05465 13.5625 3.24132L1.77919 9.60315C1.21219 9.91115 1.00102 10.6181 1.30669 11.1851C1.51669 11.576 1.91919 11.7977 2.33336 11.7977C2.52002 11.7977 2.71136 11.7533 2.88752 11.6576L3.74386 11.1956L5.59886 24.3206C5.85086 25.737 7.12719 26.7263 8.70219 26.7263H19.5312C21.1062 26.7263 22.3825 25.737 22.6368 24.2903L24.4895 11.1945L25.3493 11.6588C25.9152 11.9656 26.6233 11.7545 26.929 11.1875C27.2358 10.6205 27.0223 9.91231 26.4577 9.60664L26.46 9.60315ZM14.1167 19.0356C12.0225 19.0356 10.325 17.3381 10.325 15.244C10.325 13.1498 12.0225 11.4523 14.1167 11.4523C16.2108 11.4523 17.9083 13.1498 17.9083 15.244C17.9083 17.3381 16.2108 19.0356 14.1167 19.0356Z" fill="black"/>
</g>
</svg>
