<svg width="20" height="21" viewBox="0 0 20 21" fill="none" xmlns="http://www.w3.org/2000/svg">
<path d="M18.5848 8.23594C19.2448 8.23594 19.7848 7.69794 19.7848 7.03594C19.7848 6.37394 19.2448 5.83593 18.5848 5.83593H15.3648L15.6748 2.28893C15.7018 1.97093 15.6048 1.65893 15.3978 1.41393C15.1918 1.16893 14.9028 1.01793 14.5758 0.988927C13.9258 0.953927 13.3408 1.42093 13.2828 2.08193L12.9568 5.83593H7.89981L8.20781 2.29093C8.26781 1.63293 7.77781 1.04893 7.11081 0.988927C6.44581 0.938927 5.87581 1.41894 5.81781 2.08094L5.49281 5.83493H2.16281C1.49981 5.83493 0.962814 6.37293 0.962814 7.03493C0.962814 7.69693 1.50081 8.23493 2.16281 8.23493H5.28482L4.84482 13.2989H1.41582C0.753817 13.2989 0.21582 13.8389 0.21582 14.4989C0.21582 15.1589 0.753817 15.7009 1.41582 15.7009H4.63582L4.32582 19.2489C4.26882 19.9059 4.75782 20.4889 5.41582 20.5489L5.52182 20.5539C6.14782 20.5539 6.66181 20.0819 6.71681 19.4559L7.04382 15.7029H12.0998L11.7918 19.2469C11.7318 19.9049 12.2218 20.4889 12.8818 20.5489L12.9878 20.5539C13.6048 20.5539 14.1298 20.0719 14.1828 19.4559L14.5078 15.7029H17.8378C18.4978 15.7029 19.0378 15.1629 19.0378 14.5029C19.0378 13.8429 18.4978 13.3009 17.8378 13.3009H14.7158L15.1558 8.23693H18.5858L18.5848 8.23594ZM12.7468 8.23594L12.3068 13.2989H7.25282L7.69281 8.23693H12.7478L12.7468 8.23594Z" fill="black"/>
</svg>
