<svg width="28" height="29" viewBox="0 0 28 29" fill="none" xmlns="http://www.w3.org/2000/svg">
<mask id="mask0_202_330" style="mask-type:alpha" maskUnits="userSpaceOnUse" x="0" y="0" width="28" height="29">
<rect y="0.768066" width="28" height="28" fill="#C4C4C4"/>
</mask>
<g mask="url(#mask0_202_330)">
<path d="M18.9584 12.4348C17.8325 12.4348 16.9167 13.353 16.9167 14.4765C16.9167 15.6 17.8314 16.5181 18.9584 16.5181C20.083 16.5181 21 15.6011 21 14.4765C21 13.3518 20.083 12.4348 18.9584 12.4348ZM18.9584 15.3515C18.4754 15.3515 18.0834 14.9595 18.0834 14.4765C18.0834 13.9946 18.4765 13.6015 18.9584 13.6015C19.4402 13.6015 19.8334 13.9935 19.8334 14.4765C19.8334 14.9583 19.4414 15.3515 18.9584 15.3515ZM13.7084 12.4348C12.5814 12.4348 11.6667 13.353 11.6667 14.4765C11.6667 15.6 12.5825 16.5181 13.7084 16.5181C14.8342 16.5181 15.75 15.6011 15.75 14.4765C15.75 13.3518 14.8354 12.4348 13.7084 12.4348ZM13.7084 15.3515C13.2254 15.3515 12.8334 14.9595 12.8334 14.4765C12.8334 13.9946 13.2265 13.6015 13.7084 13.6015C14.1902 13.6015 14.5834 13.9935 14.5834 14.4765C14.5834 14.9583 14.1914 15.3515 13.7084 15.3515ZM8.45835 12.4348C7.33252 12.4348 6.41669 13.353 6.41669 14.4765C6.41669 15.6 7.33252 16.5181 8.45835 16.5181C9.58302 16.5181 10.5 15.6011 10.5 14.4765C10.5 13.3518 9.58185 12.4348 8.45835 12.4348ZM8.45835 15.3515C7.97535 15.3515 7.58335 14.9595 7.58335 14.4765C7.58335 13.9946 7.97652 13.6015 8.45835 13.6015C8.94019 13.6015 9.33335 13.9935 9.33335 14.4765C9.33335 14.9583 8.94135 15.3515 8.45835 15.3515Z" fill="black"/>
<path d="M13.7084 27.0182C6.79235 27.0182 1.16669 21.3925 1.16669 14.4765C1.16669 7.56048 6.79235 1.93481 13.7084 1.93481C20.6244 1.93481 26.25 7.56048 26.25 14.4765C26.25 21.3925 20.6244 27.0182 13.7084 27.0182ZM13.7084 3.68481C7.75835 3.68481 2.91669 8.52648 2.91669 14.4765C2.91669 20.4265 7.75835 25.2682 13.7084 25.2682C19.6584 25.2682 24.5 20.4265 24.5 14.4765C24.5 8.52648 19.6584 3.68481 13.7084 3.68481Z" fill="black"/>
</g>
</svg>
