<svg width="21" height="24" viewBox="0 0 21 24" fill="none" xmlns="http://www.w3.org/2000/svg">
<path d="M19.8083 23.8416C19.6252 23.8416 19.4443 23.7832 19.2927 23.6736L10.5917 17.3409L1.89067 23.6759C1.62467 23.8672 1.27232 23.8976 0.97832 23.7459C0.686653 23.5977 0.5 23.2968 0.5 22.9678V2.95825C0.5 1.51159 1.67833 0.333252 3.125 0.333252H18.056C19.5027 0.333252 20.681 1.51159 20.681 2.95825V22.9666C20.681 23.2956 20.4967 23.5966 20.2027 23.7459C20.079 23.8101 19.9425 23.8416 19.806 23.8416H19.8083ZM10.5917 15.3832C10.7725 15.3832 10.9533 15.4392 11.105 15.5512L18.9333 21.2481V2.95825C18.9333 2.47759 18.5402 2.08325 18.0583 2.08325H3.125C2.64317 2.08325 2.25 2.47759 2.25 2.95825V21.2481L10.0783 15.5512C10.23 15.4392 10.4108 15.3832 10.5917 15.3832Z" fill="black"/>
</svg>
