<svg width="25" height="26" viewBox="0 0 25 26" fill="none" xmlns="http://www.w3.org/2000/svg">
<path d="M12.5 13.8654C12.978 13.8654 13.3654 13.4779 13.3654 13C13.3654 12.5221 12.978 12.1346 12.5 12.1346C12.0221 12.1346 11.6346 12.5221 11.6346 13C11.6346 13.4779 12.0221 13.8654 12.5 13.8654Z" fill="#5B7083" stroke="#5B7083" stroke-width="1.15385" stroke-linecap="round" stroke-linejoin="round"/>
<path d="M18.5576 13.8654C19.0356 13.8654 19.423 13.4779 19.423 13C19.423 12.5221 19.0356 12.1346 18.5576 12.1346C18.0797 12.1346 17.6923 12.5221 17.6923 13C17.6923 13.4779 18.0797 13.8654 18.5576 13.8654Z" fill="#5B7083" stroke="#5B7083" stroke-width="1.15385" stroke-linecap="round" stroke-linejoin="round"/>
<path d="M6.44229 13.8654C6.92023 13.8654 7.30767 13.4779 7.30767 13C7.30767 12.5221 6.92023 12.1346 6.44229 12.1346C5.96435 12.1346 5.5769 12.5221 5.5769 13C5.5769 13.4779 5.96435 13.8654 6.44229 13.8654Z" fill="#5B7083" stroke="#5B7083" stroke-width="1.15385" stroke-linecap="round" stroke-linejoin="round"/>
</svg>
