
<svg width="26" height="24" viewBox="0 0 26 24" fill="none" xmlns="http://www.w3.org/2000/svg">
<path d="M25.0287 6.80242L13.2419 0.438252C12.9817 0.298252 12.6702 0.298252 12.41 0.438252L0.625545 6.80242C0.200879 7.03225 0.0422148 7.56309 0.272048 7.98892C0.429548 8.28059 0.731715 8.44741 1.04205 8.44741C1.18205 8.44741 1.32555 8.41241 1.45738 8.34241L2.40821 7.82908L4.30871 21.2609C4.55838 22.6784 5.83471 23.6666 7.40971 23.6666H18.2387C19.816 23.6666 21.0912 22.6773 21.3455 21.2318L23.2425 7.82674L24.1969 8.34241C24.6215 8.56758 25.1535 8.41241 25.3834 7.98774C25.612 7.56424 25.4534 7.03342 25.0287 6.80242ZM19.6177 20.9576C19.4929 21.6646 18.7975 21.9166 18.241 21.9166H7.41205C6.85205 21.9166 6.15788 21.6646 6.03771 20.9856L4.05205 6.94242L12.8254 2.20342L21.601 6.94008L19.6177 20.9576Z" fill="black"/>
<path d="M8.41535 12.1854C8.41535 14.6167 10.3929 16.5954 12.8254 16.5954C15.2579 16.5954 17.2354 14.6167 17.2354 12.1854C17.2354 9.75405 15.2579 7.77538 12.8254 7.77538C10.3929 7.77538 8.41535 9.75405 8.41535 12.1854ZM15.4854 12.1854C15.4854 13.653 14.293 14.8454 12.8254 14.8454C11.3577 14.8454 10.1654 13.653 10.1654 12.1854C10.1654 10.7177 11.3577 9.52538 12.8254 9.52538C14.293 9.52538 15.4854 10.7177 15.4854 12.1854Z" fill="black"/>
</svg>
