<svg width="28" height="28" viewBox="0 0 28 28" fill="none" xmlns="http://www.w3.org/2000/svg">
<mask id="mask0_404_65" style="mask-type:alpha" maskUnits="userSpaceOnUse" x="0" y="0" width="28" height="28">
<rect width="28" height="28" fill="#C4C4C4"/>
</mask>
<g mask="url(#mask0_404_65)">
<path d="M18.9583 11.6667C17.8325 11.6667 16.9167 12.5849 16.9167 13.7084C16.9167 14.8319 17.8313 15.7501 18.9583 15.7501C20.083 15.7501 21 14.8331 21 13.7084C21 12.5837 20.083 11.6667 18.9583 11.6667ZM18.9583 14.5834C18.4753 14.5834 18.0833 14.1914 18.0833 13.7084C18.0833 13.2266 18.4765 12.8334 18.9583 12.8334C19.4402 12.8334 19.8333 13.2254 19.8333 13.7084C19.8333 14.1902 19.4413 14.5834 18.9583 14.5834ZM13.7083 11.6667C12.5813 11.6667 11.6667 12.5849 11.6667 13.7084C11.6667 14.8319 12.5825 15.7501 13.7083 15.7501C14.8342 15.7501 15.75 14.8331 15.75 13.7084C15.75 12.5837 14.8353 11.6667 13.7083 11.6667ZM13.7083 14.5834C13.2253 14.5834 12.8333 14.1914 12.8333 13.7084C12.8333 13.2266 13.2265 12.8334 13.7083 12.8334C14.1902 12.8334 14.5833 13.2254 14.5833 13.7084C14.5833 14.1902 14.1913 14.5834 13.7083 14.5834ZM8.45832 11.6667C7.33249 11.6667 6.41666 12.5849 6.41666 13.7084C6.41666 14.8319 7.33249 15.7501 8.45832 15.7501C9.58299 15.7501 10.5 14.8331 10.5 13.7084C10.5 12.5837 9.58182 11.6667 8.45832 11.6667ZM8.45832 14.5834C7.97532 14.5834 7.58332 14.1914 7.58332 13.7084C7.58332 13.2266 7.97649 12.8334 8.45832 12.8334C8.94016 12.8334 9.33332 13.2254 9.33332 13.7084C9.33332 14.1902 8.94132 14.5834 8.45832 14.5834Z" fill="black"/>
<path d="M13.7083 26.2501C6.79232 26.2501 1.16666 20.6244 1.16666 13.7084C1.16666 6.79242 6.79232 1.16675 13.7083 1.16675C20.6243 1.16675 26.25 6.79242 26.25 13.7084C26.25 20.6244 20.6243 26.2501 13.7083 26.2501ZM13.7083 2.91675C7.75832 2.91675 2.91666 7.75842 2.91666 13.7084C2.91666 19.6584 7.75832 24.5001 13.7083 24.5001C19.6583 24.5001 24.5 19.6584 24.5 13.7084C24.5 7.75842 19.6583 2.91675 13.7083 2.91675Z" fill="black"/>
</g>
</svg>
